# xmcd
#
# Track frame offsets: 
#        150
#        30577
#        85527
#        119990
#        147875
#
# Disc length: 2397 seconds
#
# Revision: 4
# Processed by: cddbd v1.5.2PL0 Copyright (c) Steve Scherf et al.
# Submitted via: ExactAudioCopy v0.95b4
#
DISCID=3d095b05
DTITLE=The Horace Silver Quintet - The Tokyo Blues
DYEAR=1962
DGENRE=Jazz
TTITLE0=Too Much Sake
TTITLE1=Sayonara Blues
TTITLE2=The Tokyo Blues
TTITLE3=Cherry Blossom
TTITLE4=Ah! So
EXTD=Blue Note 53355
EXTT0=
EXTT1=
EXTT2=
EXTT3=
EXTT4=
PLAYORDER=
